<?xml version="1.0" standalone="no"?>
<svg xmlns:xlink="http://www.w3.org/1999/xlink" id="wave" style="transform:rotate(180deg); transition: 0.3s" viewBox="0 0 1440 490" version="1.1" xmlns="http://www.w3.org/2000/svg"><defs><linearGradient id="sw-gradient-0" x1="0" x2="0" y1="1" y2="0"><stop stop-color="rgba(255, 255, 255, 1)" offset="0%"/><stop stop-color="rgba(0, 83, 150, 1)" offset="100%"/></linearGradient></defs><path style="transform:translate(0, 0px); opacity:1" fill="url(#sw-gradient-0)" d="M0,294L34.3,302.2C68.6,310,137,327,206,351.2C274.3,376,343,408,411,400.2C480,392,549,343,617,334.8C685.7,327,754,359,823,367.5C891.4,376,960,359,1029,326.7C1097.1,294,1166,245,1234,261.3C1302.9,278,1371,359,1440,392C1508.6,425,1577,408,1646,375.7C1714.3,343,1783,294,1851,253.2C1920,212,1989,180,2057,138.8C2125.7,98,2194,49,2263,89.8C2331.4,131,2400,261,2469,285.8C2537.1,310,2606,229,2674,179.7C2742.9,131,2811,114,2880,114.3C2948.6,114,3017,131,3086,155.2C3154.3,180,3223,212,3291,261.3C3360,310,3429,376,3497,367.5C3565.7,359,3634,278,3703,277.7C3771.4,278,3840,359,3909,400.2C3977.1,441,4046,441,4114,441C4182.9,441,4251,441,4320,441C4388.6,441,4457,441,4526,400.2C4594.3,359,4663,278,4731,245C4800,212,4869,229,4903,236.8L4937.1,245L4937.1,490L4902.9,490C4868.6,490,4800,490,4731,490C4662.9,490,4594,490,4526,490C4457.1,490,4389,490,4320,490C4251.4,490,4183,490,4114,490C4045.7,490,3977,490,3909,490C3840,490,3771,490,3703,490C3634.3,490,3566,490,3497,490C3428.6,490,3360,490,3291,490C3222.9,490,3154,490,3086,490C3017.1,490,2949,490,2880,490C2811.4,490,2743,490,2674,490C2605.7,490,2537,490,2469,490C2400,490,2331,490,2263,490C2194.3,490,2126,490,2057,490C1988.6,490,1920,490,1851,490C1782.9,490,1714,490,1646,490C1577.1,490,1509,490,1440,490C1371.4,490,1303,490,1234,490C1165.7,490,1097,490,1029,490C960,490,891,490,823,490C754.3,490,686,490,617,490C548.6,490,480,490,411,490C342.9,490,274,490,206,490C137.1,490,69,490,34,490L0,490Z"/></svg>